<svg width="45" height="68" viewBox="0 0 45 68" fill="none" xmlns="http://www.w3.org/2000/svg">
<g id="Heart Rate-Smartphone-Romantic-Healthcare-Love" clip-path="url(#clip0_2_176)">
<path id="Vector" d="M38.25 0.25H6.75C4.96034 0.251787 3.24449 0.96352 1.979 2.229C0.713519 3.49449 0.00178698 5.21034 0 7V61C0.00178698 62.7897 0.713519 64.5055 1.979 65.771C3.24449 67.0365 4.96034 67.7482 6.75 67.75H38.25C40.0397 67.7482 41.7555 67.0365 43.021 65.771C44.2865 64.5055 44.9982 62.7897 45 61V7C44.9982 5.21034 44.2865 3.49449 43.021 2.229C41.7555 0.96352 40.0397 0.251787 38.25 0.25ZM42.75 61C42.75 62.1935 42.2759 63.3381 41.432 64.182C40.5881 65.0259 39.4435 65.5 38.25 65.5H6.75C5.55653 65.5 4.41193 65.0259 3.56802 64.182C2.72411 63.3381 2.25 62.1935 2.25 61V7C2.25 5.80653 2.72411 4.66193 3.56802 3.81802C4.41193 2.97411 5.55653 2.5 6.75 2.5H38.25C39.4435 2.5 40.5881 2.97411 41.432 3.81802C42.2759 4.66193 42.75 5.80653 42.75 7V61Z" fill="#40BB15"/>
<path id="Vector_2" d="M24.75 56.5H20.25C19.3549 56.5 18.4964 56.8556 17.8635 57.4885C17.2306 58.1215 16.875 58.9799 16.875 59.875C16.875 60.7701 17.2306 61.6285 17.8635 62.2615C18.4964 62.8944 19.3549 63.25 20.25 63.25H24.75C25.6451 63.25 26.5035 62.8944 27.1365 62.2615C27.7694 61.6285 28.125 60.7701 28.125 59.875C28.125 58.9799 27.7694 58.1215 27.1365 57.4885C26.5035 56.8556 25.6451 56.5 24.75 56.5ZM24.75 61H20.25C19.9516 61 19.6655 60.8815 19.4545 60.6705C19.2435 60.4595 19.125 60.1734 19.125 59.875C19.125 59.5766 19.2435 59.2905 19.4545 59.0795C19.6655 58.8685 19.9516 58.75 20.25 58.75H24.75C25.0484 58.75 25.3345 58.8685 25.5455 59.0795C25.7565 59.2905 25.875 59.5766 25.875 59.875C25.875 60.1734 25.7565 60.4595 25.5455 60.6705C25.3345 60.8815 25.0484 61 24.75 61Z" fill="#40BB15"/>
<path id="Vector_3" d="M14.625 4.75H16.875V7H14.625V4.75Z" fill="#40BB15"/>
<path id="Vector_4" d="M19.125 4.75H25.875V7H19.125V4.75Z" fill="#40BB15"/>
<path id="Vector_5" d="M21.7047 29.1703C21.9156 29.3812 22.2017 29.4997 22.5 29.4997C22.7983 29.4997 23.0844 29.3812 23.2954 29.1703L31.2503 21.2154C32.2975 20.1589 32.8837 18.7306 32.8804 17.2431C32.8772 15.7555 32.2848 14.3298 31.2329 13.2779C30.181 12.226 28.7553 11.6336 27.2677 11.6304C25.7802 11.6271 24.3519 12.2133 23.2954 13.2605L22.5 14.0559L21.7047 13.2605C20.6482 12.2133 19.2199 11.6271 17.7323 11.6304C16.2447 11.6336 14.819 12.226 13.7672 13.2779C12.7153 14.3298 12.1229 15.7555 12.1196 17.2431C12.1164 18.7306 12.7025 20.1589 13.7498 21.2154L21.7047 29.1703ZM15.3405 14.8513C15.6539 14.5378 16.026 14.2892 16.4355 14.1195C16.845 13.9499 17.284 13.8625 17.7272 13.8625C18.1705 13.8625 18.6094 13.9499 19.0189 14.1195C19.4284 14.2892 19.8005 14.5378 20.1139 14.8513L21.7047 16.4431C21.9196 16.6464 22.2042 16.7597 22.5 16.7597C22.7959 16.7597 23.0805 16.6464 23.2954 16.4431L24.8862 14.8513C25.5191 14.2183 26.3777 13.8627 27.2728 13.8627C28.168 13.8627 29.0265 14.2183 29.6595 14.8513C30.2925 15.4843 30.6481 16.3428 30.6481 17.238C30.6481 18.1331 30.2925 18.9917 29.6595 19.6246L22.5 26.7841L15.3405 19.6246C14.7088 18.991 14.3541 18.1327 14.3541 17.238C14.3541 16.3432 14.7088 15.4849 15.3405 14.8513Z" fill="#40BB15"/>
<path id="Vector_6" d="M30.2625 39.1223C30.1638 38.9173 30.0045 38.7476 29.806 38.6363C29.6076 38.525 29.3797 38.4775 29.1533 38.5002C28.9286 38.5195 28.715 38.6059 28.5401 38.7482C28.3652 38.8904 28.237 39.0819 28.1722 39.2978L26.0561 46.3493L23.6003 34.8856C23.5467 34.6396 23.4122 34.4186 23.2182 34.2581C23.0243 34.0976 22.7821 34.0068 22.5304 34.0002C22.2779 33.9913 22.0299 34.0686 21.8271 34.2192C21.6243 34.3699 21.4788 34.585 21.4144 34.8293L19.1003 43.3174L17.9572 39.3158C17.8958 39.097 17.7694 38.902 17.5949 38.7564C17.4204 38.6108 17.2059 38.5215 16.9796 38.5002C16.7534 38.4773 16.5257 38.5242 16.327 38.6346C16.1282 38.745 15.9681 38.9136 15.8681 39.1178L13.9297 43.0002H6.75V45.2502H14.625C14.8341 45.2503 15.039 45.1921 15.2169 45.0822C15.3947 44.9724 15.5384 44.8151 15.6319 44.6281L16.5881 42.7156L18.0428 47.8096C18.11 48.0447 18.252 48.2515 18.4473 48.3986C18.6426 48.5458 18.8805 48.6253 19.125 48.6252H19.1318C19.3774 48.6238 19.6159 48.5419 19.8107 48.3922C20.0056 48.2425 20.146 48.0331 20.2106 47.7961L22.3695 39.8817L24.7747 51.1103C24.827 51.3546 24.9591 51.5745 25.1501 51.7354C25.3412 51.8964 25.5804 51.9891 25.83 51.9991H25.875C26.117 51.9991 26.3526 51.921 26.5468 51.7765C26.7409 51.632 26.8833 51.4288 26.9528 51.1969L29.5121 42.6627L30.4931 44.6247C30.5861 44.8123 30.7296 44.9703 30.9075 45.0808C31.0854 45.1913 31.2906 45.25 31.5 45.2502H38.25V43.0002H32.1952L30.2625 39.1223Z" fill="#40BB15"/>
</g>
<defs>
<clipPath id="clip0_2_176">
<rect width="45" height="67.5" fill="white" transform="translate(0 0.25)"/>
</clipPath>
</defs>
</svg>
