<svg width="57" height="62" viewBox="0 0 57 62" fill="none" xmlns="http://www.w3.org/2000/svg">
<g id="Frame" clip-path="url(#clip0_2_190)">
<path id="Vector" d="M31.0931 9.99095C31.6878 9.90839 32.1028 9.35927 32.0202 8.76455C31.9377 8.16983 31.3886 7.75487 30.7938 7.83767C30.1991 7.92023 29.7842 8.46935 29.867 9.06407C29.9495 9.65855 30.4986 10.0735 31.0931 9.99095Z" fill="#E74040"/>
<path id="Vector_2" d="M12.1802 5.56025C12.7104 5.56025 13.1402 5.13041 13.1402 4.60025V1.72025C13.1402 1.19009 12.7104 0.760254 12.1802 0.760254C11.6501 0.760254 11.2202 1.19009 11.2202 1.72025V4.60025C11.2202 5.13041 11.6501 5.56025 12.1802 5.56025Z" fill="#E74040"/>
<path id="Vector_3" d="M12.1802 7.48047C11.6501 7.48047 11.2202 7.91031 11.2202 8.44047V11.3205C11.2202 11.8506 11.6501 12.2805 12.1802 12.2805C12.7104 12.2805 13.1402 11.8506 13.1402 11.3205V8.44047C13.1402 7.91031 12.7104 7.48047 12.1802 7.48047Z" fill="#E74040"/>
<path id="Vector_4" d="M7.38041 7.48006H10.2604C10.7906 7.48006 11.2204 7.05022 11.2204 6.52006C11.2204 5.9899 10.7906 5.56006 10.2604 5.56006H7.38041C6.85025 5.56006 6.42041 5.9899 6.42041 6.52006C6.42041 7.05022 6.85025 7.48006 7.38041 7.48006Z" fill="#E74040"/>
<path id="Vector_5" d="M14.1001 7.48006H16.9801C17.5103 7.48006 17.9401 7.05022 17.9401 6.52006C17.9401 5.9899 17.5103 5.56006 16.9801 5.56006H14.1001C13.57 5.56006 13.1401 5.9899 13.1401 6.52006C13.1401 7.05022 13.57 7.48006 14.1001 7.48006Z" fill="#E74040"/>
<path id="Vector_6" d="M50.9354 13.2402H6.06496C3.08464 13.2402 0.660156 15.6647 0.660156 18.645V49.1133C0.660156 52.0946 3.08536 54.5202 6.06664 54.5202H22.4277L21.0563 59.3202H11.2202C10.69 59.3202 10.2602 59.7501 10.2602 60.2802C10.2602 60.8104 10.69 61.2402 11.2202 61.2402H46.7402C47.2708 61.2402 47.7002 60.8104 47.7002 60.2802C47.7002 59.7501 47.2708 59.3202 46.7402 59.3202H36.9042L35.5334 54.5202H50.9356C53.9159 54.5202 56.3404 52.0958 56.3404 49.1154V18.645C56.3402 15.6647 53.9157 13.2402 50.9354 13.2402ZM6.06496 15.1602H50.9354C52.8573 15.1602 54.4202 16.7236 54.4202 18.645V45.8802H2.58016V18.645C2.58016 16.7236 4.14352 15.1602 6.06496 15.1602ZM34.907 59.3202H23.0529L24.4245 54.5202H33.5361L34.907 59.3202ZM50.9354 52.6002H6.06664C4.14448 52.6002 2.58016 51.0359 2.58016 49.1133V47.8002H54.4202V49.1154C54.4202 51.0369 52.8573 52.6002 50.9354 52.6002Z" fill="#E74040"/>
<path id="Vector_7" d="M28.5001 51.696C29.3107 51.696 29.9679 51.0388 29.9679 50.2281C29.9679 49.4174 29.3107 48.7603 28.5001 48.7603C27.6894 48.7603 27.0322 49.4174 27.0322 50.2281C27.0322 51.0388 27.6894 51.696 28.5001 51.696Z" fill="#E74040"/>
<path id="Vector_8" d="M7.38041 28.6H9.30041V30.5199C9.30041 31.0501 9.73025 31.4799 10.2604 31.4799H14.1004C14.6306 31.4799 15.0604 31.0501 15.0604 30.5199V28.6H16.9804C17.5106 28.6 17.9404 28.1701 17.9404 27.64V23.8C17.9404 23.2698 17.5106 22.84 16.9804 22.84H15.0604V20.92C15.0604 20.3898 14.6306 19.96 14.1004 19.96H10.2604C9.73025 19.96 9.30041 20.3898 9.30041 20.92V22.84H7.38041C6.85025 22.84 6.42041 23.2698 6.42041 23.8V27.64C6.42041 28.1701 6.85025 28.6 7.38041 28.6ZM8.34041 24.76H10.2604C10.7906 24.76 11.2204 24.3301 11.2204 23.8V21.88H13.1404V23.8C13.1404 24.3301 13.5703 24.76 14.1004 24.76H16.0204V26.68H14.1004C13.5703 26.68 13.1404 27.1098 13.1404 27.64V29.5599H11.2204V27.64C11.2204 27.1098 10.7906 26.68 10.2604 26.68H8.34041V24.76Z" fill="#E74040"/>
<path id="Vector_9" d="M21.7798 30.5199H46.7398C47.2705 30.5199 47.6998 30.0901 47.6998 29.5599V21.8799C47.6998 21.3498 47.2705 20.9199 46.7398 20.9199H21.7798C21.2497 20.9199 20.8198 21.3498 20.8198 21.8799V29.5599C20.8198 30.0901 21.2497 30.5199 21.7798 30.5199ZM22.7398 22.8399H45.7798V28.5999H22.7398V22.8399Z" fill="#E74040"/>
<path id="Vector_10" d="M7.38037 35.3204C7.38037 35.8505 7.81021 36.2803 8.34037 36.2803H48.6604C49.191 36.2803 49.6204 35.8505 49.6204 35.3204C49.6204 34.7902 49.191 34.3604 48.6604 34.3604H8.34037C7.81021 34.3604 7.38037 34.7902 7.38037 35.3204Z" fill="#E74040"/>
<path id="Vector_11" d="M38.1004 37.2402H8.34037C7.81021 37.2402 7.38037 37.6701 7.38037 38.2002C7.38037 38.7304 7.81021 39.1602 8.34037 39.1602H38.1004C38.631 39.1602 39.0604 38.7304 39.0604 38.2002C39.0604 37.6701 38.631 37.2402 38.1004 37.2402Z" fill="#E74040"/>
<path id="Vector_12" d="M24.6604 40.1201H8.34037C7.81021 40.1201 7.38037 40.55 7.38037 41.0801C7.38037 41.6103 7.81021 42.0401 8.34037 42.0401H24.6604C25.191 42.0401 25.6204 41.6103 25.6204 41.0801C25.6204 40.55 25.191 40.1201 24.6604 40.1201Z" fill="#E74040"/>
</g>
<defs>
<clipPath id="clip0_2_190">
<rect width="55.6802" height="60.48" fill="white" transform="translate(0.660156 0.760254)"/>
</clipPath>
</defs>
</svg>
