<svg width="69" height="64" viewBox="0 0 69 64" fill="none" xmlns="http://www.w3.org/2000/svg">
<g id="Frame" clip-path="url(#clip0_2_152)">
<path id="Vector" d="M64.4999 19.9998H53.6999V5.5998C53.6999 2.94885 51.5508 0.799805 48.8999 0.799805H20.0999C17.449 0.799805 15.2999 2.94885 15.2999 5.5998V16.3998H4.4999C2.51165 16.3998 0.899902 18.0116 0.899902 19.9998V34.3998C0.899902 36.3881 2.51165 37.9998 4.4999 37.9998H15.2999V58.3998C15.2999 61.0508 17.449 63.1998 20.0999 63.1998H48.8999C51.5508 63.1998 53.6999 61.0508 53.6999 58.3998V43.9998H64.4999C66.4882 43.9998 68.0999 42.3881 68.0999 40.3998V23.5998C68.0999 21.6116 66.4882 19.9998 64.4999 19.9998ZM17.6999 5.5998C17.6999 4.27425 18.7744 3.1998 20.0999 3.1998H48.8999C50.2254 3.1998 51.2999 4.27425 51.2999 5.5998V10.3998H17.6999V5.5998ZM4.4999 35.5998C3.8372 35.5998 3.2999 35.0625 3.2999 34.3998V19.9998C3.2999 19.3371 3.8372 18.7998 4.4999 18.7998H28.4999C29.1626 18.7998 29.6999 19.3371 29.6999 19.9998V34.3998C29.6999 35.0625 29.1626 35.5998 28.4999 35.5998H24.8999C24.2372 35.5998 23.6999 36.1371 23.6999 36.7998V39.357L18.3659 35.8014C18.1685 35.6703 17.9369 35.6003 17.6999 35.5998H4.4999ZM51.2999 58.3998C51.2999 59.7254 50.2254 60.7998 48.8999 60.7998H20.0999C18.7744 60.7998 17.6999 59.7254 17.6999 58.3998V53.5998H51.2999V58.3998ZM51.2999 51.1998H17.6999V38.2398L24.2339 42.5958C24.7852 42.9636 25.5304 42.8149 25.8982 42.2635C26.0293 42.0671 26.0995 41.8361 26.0999 41.5998V37.9998H28.4999C30.4882 37.9998 32.0999 36.3881 32.0999 34.3998V19.9998C32.0999 18.0116 30.4882 16.3998 28.4999 16.3998H17.6999V12.7998H51.2999V19.9998H40.4999C38.5117 19.9998 36.8999 21.6116 36.8999 23.5998V40.3998C36.8999 42.3881 38.5117 43.9998 40.4999 43.9998H42.8999V47.5998C42.8998 48.2625 43.437 48.8 44.0998 48.8C44.3369 48.8 44.5686 48.7298 44.7659 48.5982L51.2999 44.2398V51.1998ZM65.6999 40.3998C65.6999 41.0625 65.1626 41.5998 64.4999 41.5998H51.2999C51.0629 41.6003 50.8313 41.6703 50.6339 41.8014L45.2999 45.357V42.7998C45.2999 42.1371 44.7626 41.5998 44.0999 41.5998H40.4999C39.8372 41.5998 39.2999 41.0625 39.2999 40.3998V23.5998C39.2999 22.9371 39.8372 22.3998 40.4999 22.3998H64.4999C65.1626 22.3998 65.6999 22.9371 65.6999 23.5998V40.3998Z" fill="#23A6F0"/>
</g>
<defs>
<clipPath id="clip0_2_152">
<rect width="67.2" height="62.4" fill="white" transform="translate(0.899902 0.799805)"/>
</clipPath>
</defs>
</svg>
