<svg width="23" height="23" viewBox="0 0 23 23" fill="none" xmlns="http://www.w3.org/2000/svg">
<g id="icn bx-star">
<path id="Vector" d="M6.49772 13.1374L5.13104 19.0554C5.08872 19.2346 5.10143 19.4224 5.1675 19.5943C5.23357 19.7662 5.34993 19.9141 5.50139 20.0188C5.65285 20.1235 5.83237 20.1801 6.0165 20.1812C6.20062 20.1823 6.3808 20.1278 6.53349 20.0249L11.5278 16.6954L16.5222 20.0249C16.6784 20.1287 16.8627 20.1821 17.0502 20.178C17.2377 20.1739 17.4194 20.1124 17.5709 20.0019C17.7225 19.8915 17.8365 19.7372 17.8978 19.56C17.9591 19.3827 17.9646 19.191 17.9136 19.0105L16.236 13.1402L20.3966 9.39603C20.5298 9.27605 20.625 9.11963 20.6703 8.94614C20.7156 8.77264 20.709 8.58967 20.6515 8.41986C20.5939 8.25004 20.4878 8.10083 20.3463 7.99067C20.2048 7.88051 20.0342 7.81423 19.8554 7.80004L14.6263 7.38362L12.3634 2.3746C12.2913 2.21331 12.174 2.07635 12.0257 1.98025C11.8774 1.88415 11.7045 1.83301 11.5278 1.83301C11.3511 1.83301 11.1782 1.88415 11.0299 1.98025C10.8817 2.07635 10.7644 2.21331 10.6922 2.3746L8.42942 7.38362L3.20027 7.79913C3.02457 7.81305 2.85661 7.87729 2.71647 7.98416C2.57634 8.09104 2.46996 8.23602 2.41006 8.40178C2.35017 8.56753 2.33929 8.74703 2.37874 8.9188C2.41819 9.09057 2.50629 9.24734 2.6325 9.37035L6.49772 13.1374ZM9.11459 9.16947C9.27831 9.15658 9.43555 9.09987 9.56982 9.0053C9.70408 8.91073 9.81044 8.78179 9.87773 8.63198L11.5278 4.98047L13.1779 8.63198C13.2452 8.78179 13.3516 8.91073 13.4859 9.0053C13.6201 9.09987 13.7774 9.15658 13.9411 9.16947L17.5843 9.4584L14.5841 12.1587C14.3236 12.3936 14.2199 12.7549 14.3153 13.0925L15.4646 17.1146L12.0378 14.8297C11.8874 14.7288 11.7104 14.6749 11.5292 14.6749C11.3481 14.6749 11.171 14.7288 11.0206 14.8297L7.43972 17.2173L8.40282 13.0475C8.43813 12.8942 8.43339 12.7343 8.38905 12.5833C8.34472 12.4323 8.26228 12.2953 8.14966 12.1853L5.3631 9.46849L9.11459 9.16947Z" fill="#F3CD03"/>
</g>
</svg>
