<svg width="23" height="23" viewBox="0 0 23 23" fill="none" xmlns="http://www.w3.org/2000/svg">
<g id="icn bxs-star">
<path id="Vector" d="M20.6364 8.41964C20.5788 8.24983 20.4727 8.10061 20.3312 7.99043C20.1897 7.88024 20.019 7.81389 19.8403 7.79959L14.6111 7.38408L12.3483 2.37506C12.2762 2.21373 12.159 2.07671 12.0108 1.98052C11.8626 1.88434 11.6897 1.8331 11.513 1.83301C11.3363 1.83291 11.1634 1.88395 11.015 1.97998C10.8667 2.076 10.7493 2.2129 10.6771 2.37415L8.41428 7.38408L3.18513 7.79959C3.00944 7.8135 2.84148 7.87774 2.70134 7.98462C2.5612 8.0915 2.45482 8.23648 2.39493 8.40224C2.33503 8.56799 2.32416 8.74749 2.3636 8.91926C2.40305 9.09103 2.49115 9.2478 2.61736 9.37081L6.48167 13.1379L5.11499 19.0559C5.07349 19.235 5.08679 19.4225 5.15316 19.594C5.21954 19.7655 5.33592 19.913 5.4872 20.0175C5.63849 20.1221 5.8177 20.1787 6.00157 20.1801C6.18545 20.1815 6.3655 20.1276 6.51836 20.0254L11.5127 16.6958L16.507 20.0254C16.6633 20.1291 16.8475 20.1825 17.035 20.1784C17.2225 20.1743 17.4043 20.1129 17.5558 20.0024C17.7073 19.8919 17.8214 19.7377 17.8827 19.5604C17.9439 19.3832 17.9495 19.1914 17.8985 19.0109L16.2209 13.1406L20.3814 9.39649C20.6539 9.15067 20.7538 8.76727 20.6364 8.41964Z" fill="#F3CD03"/>
</g>
</svg>
